<?xml version="1.0" standalone="no"?>
<!DOCTYPE svg PUBLIC "-//W3C//DTD SVG 20010904//EN"
 "http://www.w3.org/TR/2001/REC-SVG-20010904/DTD/svg10.dtd">
<svg version="1.0" xmlns="http://www.w3.org/2000/svg"
 width="173.000000pt" height="152.000000pt" viewBox="0 0 173.000000 152.000000"
 preserveAspectRatio="xMidYMid meet">

<g transform="translate(0.000000,152.000000) scale(0.100000,-0.100000)"
fill="#000000" stroke="none">
<path d="M1073 1084 c0 -17 2 -22 7 -13 5 6 6 18 3 26 -8 19 -10 16 -10 -13z"/>
<path d="M468 1063 c-3 -12 -1 -26 5 -32 8 -8 8 -11 -1 -11 -7 0 -12 4 -12 9
0 5 -8 12 -17 15 -10 4 -14 4 -10 0 4 -4 1 -14 -7 -23 -8 -9 -106 -223 -219
-476 l-204 -460 213 -3 c194 -2 219 -1 275 18 75 25 135 65 182 120 49 57 146
250 281 559 107 245 124 300 86 276 -7 -4 -114 -7 -238 -6 -269 2 -238 3 -284
-4 -32 -5 -37 -3 -40 17 l-3 23 -7 -22z"/>
<path d="M1245 580 c-221 -33 -303 -108 -439 -403 l-46 -98 263 4 c169 2 275
8 299 15 61 20 145 83 189 142 35 46 179 323 179 344 0 8 -383 5 -445 -4z"/>
</g>
</svg>
